<svg xmlns:xlink="http://www.w3.org/1999/xlink" xmlns="http://www.w3.org/2000/svg" viewBox="0 0 20 20" width="20" height="20" style="display: block;"><defs><symbol xmlns="http://www.w3.org/2000/svg" viewBox="0 0 20 20" fill="none" id="articles_outline_20"><path d="M17.247 14.5c.42 0 .753.336.753.75l-.007.102a.75.75 0 0 1-.746.648H4.753a.75.75 0 1 1 0-1.5h12.494Zm.001-5a.749.749 0 1 1 0 1.5H8.752A.748.748 0 0 1 8 10.25l.007-.102a.75.75 0 0 1 .745-.648h8.496Zm-9-6.5c.408 0 .752.336.752.75l-.007.102a.75.75 0 0 1-.746.648H5.75v5.75a.75.75 0 0 1-1.5 0V4.5H1.753a.757.757 0 0 1-.746-.648L1 3.75A.75.75 0 0 1 1.753 3h6.494Zm9.003 1.5a.751.751 0 0 1 0 1.5h-5.502A.751.751 0 0 1 11 5.25l.007-.102a.748.748 0 0 1 .742-.648h5.502Z" fill="currentColor"></path></symbol></defs><use xlink:href="#articles_outline_20" style="" fill="#818C99"></use></svg>