<svg xmlns:xlink="http://www.w3.org/1999/xlink" fill="none" height="20" viewBox="0 0 20 20" width="20" xmlns="http://www.w3.org/2000/svg"><path clip-rule="evenodd" d="M5.22 2.22c.3-.3.77-.3 1.06 0l1 1a5.47 5.47 0 0 1 5.28-.09l.91-.91a.75.75 0 1 1 1.06 1.06l-.74.74A5.5 5.5 0 0 1 15.13 6h1.62a.75.75 0 0 1 0 1.5h-1.27l.02.5v1.5h2.25a.75.75 0 0 1 0 1.5H15.5v1.25c0 .25-.02.5-.05.75h1.3a.75.75 0 0 1 0 1.5h-1.73a5.5 5.5 0 0 1-10.04 0H3.25a.75.75 0 0 1 0-1.5h1.3c-.03-.25-.05-.5-.05-.75V11H2.25a.75.75 0 0 1 0-1.5H4.5V8c0-.17 0-.34.02-.5H3.25a.75.75 0 0 1 0-1.5h1.62a5.5 5.5 0 0 1 1.21-1.86l-.86-.86a.75.75 0 0 1 0-1.06zM14 12.25V8a4 4 0 0 0-8 0v4.25a4 4 0 0 0 8 0zm-5.5-4c0-.41.34-.75.75-.75h1.5a.75.75 0 0 1 0 1.5h-1.5a.75.75 0 0 1-.75-.75zm.75 3.25a.75.75 0 0 0 0 1.5h1.5a.75.75 0 0 0 0-1.5z" fill="#447BBA" fill-rule="evenodd"></path></svg>